<svg width="67" height="67" viewBox="0 0 67 67" fill="none" xmlns="http://www.w3.org/2000/svg">
<path d="M66.7 33.5C66.7 51.9 51.9 66.8 33.5 66.8C15.2 66.8 0.300049 51.9 0.300049 33.5C0.300049 15.2001 15.2 0.300049 33.5 0.300049C51.9 0.300049 66.7 15.2001 66.7 33.5Z" fill="#42210B"/>
<path d="M65.8 33.5C65.8 51.3 51.3 65.8 33.5 65.8C15.7 65.8 1.30005 51.3 1.30005 33.5C1.30005 15.7001 15.7 1.30005 33.5 1.30005C51.3 1.30005 65.8 15.7001 65.8 33.5Z" fill="url(#paint0_linear_2_1293)"/>
<path style="mix-blend-mode:multiply" d="M65.8 33.5C65.8 51.3 51.3 65.8 33.5 65.8C15.7 65.8 1.30005 51.3 1.30005 33.5C1.30005 15.7001 15.7 1.30005 33.5 1.30005C51.3 1.30005 65.8 15.7001 65.8 33.5Z" fill="url(#paint1_linear_2_1293)"/>
<path d="M33.5 58.4C19.8 58.4 8.69995 47.2 8.69995 33.5C8.69995 19.8 19.8 8.69995 33.5 8.69995C47.2 8.69995 58.4 19.8 58.4 33.5C58.4 47.2 47.2 58.4 33.5 58.4Z" fill="url(#paint2_linear_2_1293)"/>
<path fill-rule="evenodd" clip-rule="evenodd" d="M58.7 33.5C58.7 47.4 47.4 58.7 33.5 58.7C19.6 58.7 8.30005 47.4 8.30005 33.5C8.30005 19.6 19.6 8.30005 33.5 8.30005C47.4 8.30005 58.7 19.6 58.7 33.5ZM9 33.5C9 47.1001 20 58 33.5 58C47 58 58 47.1001 58 33.5C58 20 47 9.00005 33.5 9.00005C20 9.00005 9 20 9 33.5Z" fill="#4F230B"/>
<path d="M56.1 33.5001C56.1 46.0001 46 56.1001 33.5 56.1001C21 56.1001 10.9 46.0001 10.9 33.5001C10.9 21.0001 21 10.9001 33.5 10.9001C46 10.9001 56.1 21.0001 56.1 33.5001Z" fill="url(#paint3_linear_2_1293)"/>
<path style="mix-blend-mode:screen" d="M56.1 33.5001C56.1 46.0001 46 56.1001 33.5 56.1001C21 56.1001 10.9 46.0001 10.9 33.5001C10.9 21.0001 21 10.9001 33.5 10.9001C46 10.9001 56.1 21.0001 56.1 33.5001Z" fill="url(#paint4_linear_2_1293)"/>
<path style="mix-blend-mode:multiply" opacity="0.3" d="M46.5 35.5001C45.7 34.2335 44.4333 33.1668 42.7 32.3001C40.9666 31.3668 38.1 30.4668 34.1 29.6001C32.4333 29.2668 31.4 28.9001 31 28.5001C30.5333 28.1668 30.3 27.7668 30.3 27.3001C30.3 26.6335 30.5666 26.0668 31.1 25.6001C31.6333 25.1335 32.4333 24.9001 33.5 24.9001C34.8333 24.9001 35.8666 25.2001 36.6 25.8001C36.8666 26.0668 37.1 26.3668 37.3 26.7001C38.1 27.9001 39.5 28.7001 40.9 28.6001H41.1C44.7 28.4001 46.1 23.7001 43.2 21.6001C43.2 21.5335 43.1666 21.5001 43.1 21.5001C41.8333 20.5668 40.1666 19.9668 38.1 19.7001V15.2001C38.1 14.8001 37.8 14.4001 37.3 14.4001H32.2C31.7 14.4001 31.4 14.8001 31.4 15.2001V19.6001C29.7334 19.7335 28.3333 20.0668 27.2 20.6001C25.4 21.3335 24.0666 22.4001 23.2 23.8001C22.2666 25.1335 21.8 26.5668 21.8 28.1001C21.8 30.4335 22.6667 32.3335 24.4 33.8001C26.1334 35.3335 29 36.5335 33 37.4001C35.4667 37.9335 37.0333 38.5001 37.7 39.1001C38.3666 39.7668 38.7 40.4668 38.7 41.2001C38.7 42.0001 38.3666 42.7001 37.7 43.3001C36.9666 43.9668 35.9666 44.3001 34.7 44.3001C32.9 44.3001 31.5333 43.7001 30.6 42.5001C30.4 42.2335 30.2333 41.9335 30.1 41.6001C29.4 40.2001 27.9 39.3001 26.3 39.4001L25.7 39.5001C22.6 39.7001 21 43.1001 22.7 45.6001C23.1 46.1335 23.5333 46.6668 24 47.2001C25.5333 48.7335 28 49.6668 31.4 50.0001V53.9001C31.4 54.3001 31.7 54.7001 32.2 54.7001H37.3C37.8 54.7001 38.1 54.3001 38.1 53.9001V49.8001C39.4333 49.6001 40.6333 49.3001 41.7 48.9001C43.5666 48.0335 45.0333 46.8001 46.1 45.2001C47.1666 43.6001 47.7 41.8335 47.7 39.9001C47.7 38.3001 47.3 36.8335 46.5 35.5001Z" fill="url(#paint5_linear_2_1293)"/>
<path d="M45.2 34.3C44.4666 32.9666 43.2333 31.8666 41.5 31C39.7 30.1333 36.8 29.2666 32.8 28.4C31.2 28.0666 30.2 27.7 29.8 27.3C29.3334 26.9 29.1 26.4666 29.1 26C29.1 25.4 29.3667 24.8666 29.9 24.4C30.4334 23.9333 31.2334 23.6999 32.3 23.6999C33.6334 23.6999 34.6667 23.9999 35.4 24.5999C35.6667 24.8666 35.9 25.1666 36.1 25.5C36.8 26.7 38.2 27.4 39.7 27.4L39.8 27.3C43.5 27.1 44.9 22.5 42 20.3C41.9333 20.3 41.9 20.3 41.9 20.3C40.6334 19.3666 38.9667 18.7333 36.9 18.4V14C36.9 13.6 36.5 13.2 36.1 13.2H30.9C30.5 13.2 30.1 13.6 30.1 14V18.3C28.4333 18.5 27.0334 18.8333 25.9 19.3C24.1667 20.1 22.8334 21.1666 21.9 22.5C21.0334 23.9 20.6 25.3666 20.6 26.9C20.6 29.1666 21.4666 31.0666 23.2 32.5999C24.9333 34.0666 27.8 35.2666 31.8 36.1999C34.2667 36.7333 35.8333 37.3 36.5 37.9C37.1667 38.5 37.5 39.2 37.5 40C37.5 40.7999 37.1334 41.4999 36.4 42.0999C35.7334 42.6999 34.7334 43 33.4 43C31.6667 43 30.3334 42.3999 29.4 41.1999C29.2 40.9999 29.0334 40.7333 28.9 40.4C28.2 38.9 26.6 38.0999 25 38.1999H24.4C21.4 38.3999 19.7 41.8 21.5 44.4C21.8333 44.9333 22.2667 45.4666 22.8 46C24.3334 47.4666 26.7666 48.3666 30.1 48.6999V52.6999C30.1 53.0999 30.5 53.5 30.9 53.5H36.1C36.5 53.5 36.9 53.0999 36.9 52.6999V48.5999C38.2334 48.3999 39.4 48.0666 40.4 47.5999C42.3334 46.7999 43.8 45.5999 44.8 44C45.8667 42.4 46.4 40.6333 46.4 38.6999C46.4 37.0999 46 35.6333 45.2 34.3Z" fill="url(#paint6_linear_2_1293)"/>
<path d="M45.2 34.3C44.4666 32.9666 43.2333 31.8666 41.5 31C39.7 30.1333 36.8 29.2666 32.8 28.4C31.2 28.0666 30.2 27.7 29.8 27.3C29.3334 26.9 29.1 26.4666 29.1 26C29.1 25.4 29.3667 24.8666 29.9 24.4C30.4334 23.9333 31.2334 23.6999 32.3 23.6999C33.6334 23.6999 34.6667 23.9999 35.4 24.5999C35.6667 24.8666 35.9 25.1666 36.1 25.5C36.8 26.7 38.2 27.4 39.7 27.4L39.8 27.3C43.5 27.1 44.9 22.5 42 20.3C41.9333 20.3 41.9 20.3 41.9 20.3C40.6334 19.3666 38.9667 18.7333 36.9 18.4V14C36.9 13.6 36.5 13.2 36.1 13.2H30.9C30.5 13.2 30.1 13.6 30.1 14V18.3C28.4333 18.5 27.0334 18.8333 25.9 19.3C24.1667 20.1 22.8334 21.1666 21.9 22.5C21.0334 23.9 20.6 25.3666 20.6 26.9C20.6 29.1666 21.4666 31.0666 23.2 32.5999C24.9333 34.0666 27.8 35.2666 31.8 36.1999C34.2667 36.7333 35.8333 37.3 36.5 37.9C37.1667 38.5 37.5 39.2 37.5 40C37.5 40.7999 37.1334 41.4999 36.4 42.0999C35.7334 42.6999 34.7334 43 33.4 43C31.6667 43 30.3334 42.3999 29.4 41.1999C29.2 40.9999 29.0334 40.7333 28.9 40.4C28.2 38.9 26.6 38.0999 25 38.1999H24.4C21.4 38.3999 19.7 41.8 21.5 44.4C21.8333 44.9333 22.2667 45.4666 22.8 46C24.3334 47.4666 26.7666 48.3666 30.1 48.6999V52.6999C30.1 53.0999 30.5 53.5 30.9 53.5H36.1C36.5 53.5 36.9 53.0999 36.9 52.6999V48.5999C38.2334 48.3999 39.4 48.0666 40.4 47.5999C42.3334 46.7999 43.8 45.5999 44.8 44C45.8667 42.4 46.4 40.6333 46.4 38.6999C46.4 37.0999 46 35.6333 45.2 34.3Z" fill="#FFEE59" stroke="#4F230B" stroke-width="0.7" stroke-miterlimit="10"/>
<g style="mix-blend-mode:screen">
<path d="M32.8 28.3999C31.2 28.0666 30.2 27.6999 29.8 27.2999C29.4667 27.0332 29.2333 26.7332 29.1 26.3999C29.1 26.5332 29.1 26.6666 29.1 26.7999C29.1 27.2666 29.3334 27.6999 29.8 28.0999C30.2 28.4999 31.2 28.8666 32.8 29.1999C36.8 30.0666 39.7 30.9332 41.5 31.7999C43.2333 32.6666 44.4666 33.7666 45.2 35.0999C45.9333 36.2999 46.3334 37.6332 46.4 39.0999C46.4 38.9666 46.4 38.8332 46.4 38.6999C46.4 37.0999 46 35.6332 45.2 34.2999C44.4666 32.9666 43.2333 31.8666 41.5 30.9999C39.7 30.1332 36.8 29.2666 32.8 28.3999Z" fill="url(#paint7_linear_2_1293)"/>
<path d="M37.5 40.4C37.3667 41 37 41.5667 36.4 42.1C35.7334 42.7 34.7334 43 33.4 43C31.6667 43 30.3334 42.4 29.4 41.2C29.2 41 29.0334 40.7334 28.9 40.4C28.2 38.9 26.6 38.1 25 38.2H24.4C22.1 38.4 20.6001 40.4 20.8001 42.5C21.0001 40.7 22.4 39.2 24.4 39H25C26.6 38.9 28.2 39.7 28.9 41.2C29.0334 41.5334 29.2 41.8 29.4 42C30.3334 43.2 31.6667 43.8 33.4 43.8C34.7334 43.8 35.7334 43.5 36.4 42.9C37.1334 42.3 37.5 41.6 37.5 40.8C37.5 40.6667 37.5 40.5334 37.5 40.4Z" fill="url(#paint8_linear_2_1293)"/>
<path d="M21.9 23.3C22.8334 21.9667 24.1667 20.9 25.9 20.1C27.0334 19.6334 28.4333 19.3 30.1 19.1V18.3C28.4333 18.5 27.0334 18.8334 25.9 19.3C24.1667 20.1 22.8334 21.1667 21.9 22.5C21.0334 23.9 20.6 25.3667 20.6 26.9C20.6 26.9667 20.6 27.0667 20.6 27.2C20.6666 25.8667 21.1 24.5667 21.9 23.3Z" fill="url(#paint9_linear_2_1293)"/>
<path d="M30.9 14H36.1C36.5 14 36.9 14.2999 36.9 14.7999V14C36.9 13.6 36.5 13.2 36.1 13.2H30.9C30.5 13.2 30.1 13.6 30.1 14V14.7999C30.1 14.2999 30.5 14 30.9 14Z" fill="url(#paint10_linear_2_1293)"/>
<path d="M36.9 19.1999C38.9667 19.5332 40.6334 20.1666 41.9 21.0999C41.9 21.0999 41.9333 21.0999 42 21.0999C42.9 21.7999 43.4 22.7999 43.5 23.7999C43.6 22.4999 43.2 21.1999 42 20.2999C41.9333 20.2999 41.9 20.2999 41.9 20.2999C40.6334 19.3666 38.9667 18.7332 36.9 18.3999V19.1999Z" fill="url(#paint11_linear_2_1293)"/>
</g>
<g style="mix-blend-mode:multiply" opacity="0.8">
<path d="M29.1 24.8C29.1 25 29.1333 25.2 29.2 25.4C29.3333 25 29.5667 24.6667 29.9 24.4C30.4334 23.9333 31.2334 23.7 32.3 23.7C33.6334 23.7 34.6667 24 35.4 24.6C35.6667 24.8667 35.9 25.1667 36.1 25.5C36.8 26.7 38.2 27.4 39.7 27.4L39.8 27.3C42.4 27.2 43.8 24.9 43.5 22.8C43.2 24.5 41.9 26 39.8 26.2H39.7C38.2 26.3 36.8 25.5 36.1 24.3C35.9 23.9667 35.6667 23.6667 35.4 23.4C34.6667 22.8 33.6334 22.5 32.3 22.5C31.2334 22.5 30.4334 22.7333 29.9 23.2C29.3667 23.6667 29.1 24.2 29.1 24.8Z" fill="#D85700"/>
<path d="M23.2 32.6C24.9333 34.0666 27.8 35.2666 31.8 36.2C34.2667 36.7333 35.8333 37.3 36.5 37.9C36.9667 38.3666 37.2667 38.8666 37.4 39.4C37.4667 39.2 37.5 39 37.5 38.8C37.5 38 37.1667 37.3 36.5 36.7C35.8333 36.1 34.2667 35.5333 31.8 35C27.8 34.0666 24.9333 32.8666 23.2 31.4C21.6 30 20.7333 28.2666 20.6 26.2C20.6 26.4 20.6 26.6333 20.6 26.9C20.6 29.1666 21.4666 31.0666 23.2 32.6Z" fill="#D85700"/>
<path d="M30.1 47.5001C26.7667 47.1668 24.3334 46.2668 22.8001 44.8001C22.2667 44.2668 21.8334 43.7334 21.5 43.2001C21.1 42.6668 20.8667 42.1334 20.8001 41.6001C20.7001 42.5001 20.9 43.5001 21.5 44.4001C21.8334 44.9334 22.2667 45.4668 22.8001 46.0001C24.3334 47.4668 26.7667 48.3668 30.1 48.7001V47.5001Z" fill="#D85700"/>
<path d="M36.1 52.3H30.9C30.5 52.3 30.1 51.9 30.1 51.5V52.7C30.1 53.1 30.5 53.5 30.9 53.5H36.1C36.5 53.5 36.9 53.1 36.9 52.7V51.5C36.9 51.9 36.5 52.3 36.1 52.3Z" fill="#D85700"/>
<path d="M44.8 42.8001C43.8 44.4001 42.3334 45.6001 40.4 46.4001C39.4 46.8668 38.2334 47.2001 36.9 47.4001V48.6001C38.2334 48.4001 39.4 48.0668 40.4 47.6001C42.3334 46.8001 43.8 45.6001 44.8 44.0001C45.8667 42.4001 46.4 40.6334 46.4 38.7001C46.4 38.5001 46.4 38.3001 46.4 38.1001C46.3334 39.7668 45.8 41.3334 44.8 42.8001Z" fill="#D85700"/>
</g>
<defs>
<linearGradient id="paint0_linear_2_1293" x1="65.753" y1="8.40005" x2="65.753" y2="56.861" gradientUnits="userSpaceOnUse">
<stop stop-color="#FFD700"/>
<stop offset="1" stop-color="#FF9A00"/>
</linearGradient>
<linearGradient id="paint1_linear_2_1293" x1="60.5081" y1="-9.93595" x2="91.7611" y2="56.89" gradientUnits="userSpaceOnUse">
<stop stop-color="white"/>
<stop offset="1" stop-color="#FF9A00"/>
</linearGradient>
<linearGradient id="paint2_linear_2_1293" x1="8.66295" y1="53.793" x2="8.66295" y2="11.351" gradientUnits="userSpaceOnUse">
<stop stop-color="#FFD700"/>
<stop offset="1" stop-color="#FF9A00"/>
</linearGradient>
<linearGradient id="paint3_linear_2_1293" x1="56.123" y1="15.6891" x2="56.123" y2="44.6461" gradientUnits="userSpaceOnUse">
<stop stop-color="#FFD700"/>
<stop offset="1" stop-color="#FF9A00"/>
</linearGradient>
<linearGradient id="paint4_linear_2_1293" x1="10.561" y1="55.5181" x2="-7.97098" y2="22.4772" gradientUnits="userSpaceOnUse">
<stop/>
<stop offset="1" stop-color="#FFC857"/>
</linearGradient>
<linearGradient id="paint5_linear_2_1293" x1="39.587" y1="-17.7908" x2="77.5401" y2="28.2469" gradientUnits="userSpaceOnUse">
<stop stop-color="#C24400"/>
<stop offset="1" stop-color="white"/>
</linearGradient>
<linearGradient id="paint6_linear_2_1293" x1="2.11094" y1="53.4019" x2="2.11094" y2="15.2529" gradientUnits="userSpaceOnUse">
<stop stop-color="#C24400"/>
<stop offset="1" stop-color="#E37800"/>
</linearGradient>
<linearGradient id="paint7_linear_2_1293" x1="42.404" y1="1.58191" x2="42.404" y2="71.9179" gradientUnits="userSpaceOnUse">
<stop/>
<stop offset="1" stop-color="#FFC857"/>
</linearGradient>
<linearGradient id="paint8_linear_2_1293" x1="30.097" y1="1.58298" x2="30.097" y2="71.9181" gradientUnits="userSpaceOnUse">
<stop/>
<stop offset="1" stop-color="#FFC857"/>
</linearGradient>
<linearGradient id="paint9_linear_2_1293" x1="29.505" y1="1.58206" x2="29.505" y2="71.917" gradientUnits="userSpaceOnUse">
<stop/>
<stop offset="1" stop-color="#FFC857"/>
</linearGradient>
<linearGradient id="paint10_linear_2_1293" x1="33.701" y1="1.58196" x2="33.701" y2="71.9169" gradientUnits="userSpaceOnUse">
<stop/>
<stop offset="1" stop-color="#FFC857"/>
</linearGradient>
<linearGradient id="paint11_linear_2_1293" x1="42.363" y1="1.5819" x2="42.363" y2="71.9169" gradientUnits="userSpaceOnUse">
<stop/>
<stop offset="1" stop-color="#FFC857"/>
</linearGradient>
</defs>
</svg>
