<svg width="287" height="197" viewBox="0 0 287 197" fill="none" xmlns="http://www.w3.org/2000/svg">
<rect width="287" height="197" fill="white"/>
<g clip-path="url(#clip0_2511_461)">
<path d="M39.3899 100.344L47.7037 57.4207H52.4456L54.6552 46H36.6062L23.8516 111.858H41.9005L44.1318 100.344H39.3899Z" fill="black"/>
<path d="M117.427 47.8965L114.531 62.8427C116.986 66.7825 117.473 72.6283 116.123 79.5984C114.736 86.7648 112.201 92.2929 108.141 95.834L105.404 109.967C108.588 108.893 111.49 107.382 114.137 105.483C120.874 100.599 125.756 93.1712 128.372 84.5722L130.336 74.4284C131.41 61.6966 126.74 51.8674 117.427 47.8965Z" fill="black"/>
<path d="M130.336 74.4258L128.372 84.5695C128.865 82.95 129.288 81.29 129.613 79.5958C129.955 77.8268 130.194 76.1014 130.336 74.4258Z" fill="black"/>
<path d="M81.0621 57.4204C86.3346 57.4204 89.9996 59.4105 92.1502 62.8613L95.0456 47.9151C92.1192 46.6662 88.7366 45.9966 84.9257 45.9966H77.366L75.1533 57.4173H81.059L81.0621 57.4204Z" fill="black"/>
<path d="M72.3781 100.344H66.8387L64.6074 111.858H71.0654C75.4504 111.858 79.4165 111.204 83.0195 109.986L85.7566 95.8525C82.4081 98.7739 78.02 100.344 72.375 100.344H72.3781Z" fill="black"/>
<path d="M136.598 54.7017L127.214 103.156C133.815 97.3135 138.296 88.836 140.136 79.3338C142.076 69.3209 140.741 60.7063 136.598 54.7017Z" fill="black"/>
<path d="M97.5558 46.1304L95.2748 57.8999C103.446 59.8869 106.133 68.2647 103.927 79.6449C101.724 91.0251 96.631 98.288 87.1224 99.9854L84.8477 111.727C91.5074 111.154 97.1337 108.977 101.941 105.529C102.825 104.887 103.676 104.193 104.495 103.467L113.879 55.0128C110.366 49.9207 104.833 46.7128 97.5496 46.1304H97.5558Z" fill="black"/>
<path d="M24.7547 45.9995L12 111.858H21.6886L34.4433 45.9995H24.7547Z" fill="black"/>
<path d="M60.1954 100.344H49.9172L58.231 57.4207H68.8785C70.3464 57.4207 71.6839 57.5795 72.9066 57.8754L75.1844 46.1059C74.39 46.0436 73.58 46 72.7421 46H57.1541H56.8221L44.0674 111.858H58.8858C60.1178 111.858 61.3126 111.802 62.4794 111.699L64.7542 99.9578C63.3359 100.21 61.8184 100.344 60.1985 100.344H60.1954Z" fill="black"/>
<path d="M174.379 100.344L182.693 57.4207H187.435L189.648 46H171.599L158.841 111.858H176.89L179.121 100.344H174.379Z" fill="black"/>
<path d="M252.415 47.8965L249.519 62.8427C251.974 66.7825 252.461 72.6283 251.111 79.5984C249.724 86.7648 247.189 92.2929 243.13 95.834L240.393 109.967C243.577 108.893 246.478 107.382 249.125 105.483C255.863 100.599 260.744 93.1712 263.36 84.5722L265.325 74.4284C266.398 61.6966 261.728 51.8674 252.415 47.8965Z" fill="black"/>
<path d="M265.324 74.4258L263.359 84.5695C263.853 82.95 264.275 81.29 264.601 79.5958C264.942 77.8268 265.181 76.1014 265.324 74.4258Z" fill="black"/>
<path d="M216.049 57.4204C221.322 57.4204 224.987 59.4105 227.138 62.8613L230.033 47.9151C227.107 46.6662 223.724 45.9966 219.913 45.9966H212.353L210.141 57.4173H216.046L216.049 57.4204Z" fill="black"/>
<path d="M207.369 100.344H201.83L199.599 111.858H206.057C210.442 111.858 214.408 111.204 218.011 109.986L220.748 95.8525C217.399 98.7739 213.011 100.344 207.366 100.344H207.369Z" fill="black"/>
<path d="M271.59 54.7017L262.205 103.156C268.806 97.3135 273.287 88.836 275.127 79.3338C277.067 69.3209 275.732 60.7063 271.59 54.7017Z" fill="black"/>
<path d="M232.544 46.1304L230.263 57.8999C238.434 59.8869 241.122 68.2647 238.915 79.6449C236.712 91.0251 231.619 98.288 222.111 99.9854L219.836 111.727C226.496 111.154 232.122 108.977 236.929 105.529C237.814 104.887 238.664 104.193 239.483 103.467L248.868 55.0128C245.355 49.9207 239.821 46.7128 232.538 46.1304H232.544Z" fill="black"/>
<path d="M159.747 46L146.989 111.858H156.678L169.433 46H159.747Z" fill="black"/>
<path d="M195.186 100.344H184.907L193.221 57.4207H203.869C205.337 57.4207 206.674 57.5795 207.897 57.8754L210.178 46.1059C209.383 46.0436 208.573 46 207.735 46H192.147L179.393 111.858L192.144 46H191.812L179.058 111.858H193.876C195.108 111.858 196.303 111.802 197.47 111.699L199.744 99.9578C198.326 100.21 196.809 100.344 195.189 100.344H195.186Z" fill="black"/>
</g>
<path d="M68.5292 148.942L71.9713 128.208H73.7835L72.4472 136.358H72.6092C72.8859 135.892 73.2537 135.413 73.7127 134.92C74.1784 134.427 74.7521 134.016 75.4338 133.685C76.1155 133.347 76.9321 133.179 77.8838 133.179C79.1594 133.179 80.2225 133.516 81.0729 134.191C81.93 134.859 82.5274 135.797 82.8648 137.006C83.2023 138.207 83.2394 139.608 82.9762 141.207C82.7062 142.813 82.2034 144.221 81.4677 145.429C80.732 146.637 79.8276 147.579 78.7545 148.253C77.6813 148.928 76.5103 149.266 75.2414 149.266C74.2965 149.266 73.5338 149.097 72.9534 148.76C72.3797 148.422 71.941 148.007 71.6372 147.514C71.3403 147.015 71.1243 146.529 70.9893 146.057H70.7666L70.2806 148.942H68.5292ZM71.6069 141.177C71.4044 142.432 71.4044 143.546 71.6069 144.518C71.8161 145.483 72.2244 146.242 72.8319 146.796C73.4461 147.342 74.256 147.616 75.2617 147.616C76.2943 147.616 77.2156 147.332 78.0255 146.765C78.8422 146.192 79.5171 145.419 80.0503 144.447C80.5903 143.475 80.9615 142.385 81.164 141.177C81.3597 139.982 81.3564 138.906 81.1539 137.947C80.9514 136.989 80.5431 136.229 79.9289 135.669C79.3147 135.102 78.4879 134.819 77.4485 134.819C76.4361 134.819 75.5249 135.092 74.715 135.639C73.9118 136.179 73.2436 136.928 72.7104 137.886C72.1772 138.838 71.8094 139.935 71.6069 141.177ZM85.3857 154.773C85.028 154.773 84.6973 154.74 84.3936 154.672C84.0966 154.605 83.8637 154.53 83.695 154.449L84.4543 152.86C85.0213 153.056 85.541 153.116 86.0134 153.042C86.4926 152.975 86.9482 152.745 87.3802 152.354C87.8121 151.962 88.2373 151.378 88.6558 150.602L89.5062 149.023L86.4285 133.391H88.3015L90.7312 146.593H90.8629L97.6763 133.391H99.7113L90.144 151.382C89.7323 152.158 89.2767 152.796 88.7773 153.295C88.2846 153.795 87.7514 154.166 87.1777 154.409C86.6107 154.652 86.0134 154.773 85.3857 154.773ZM112.642 148.942L110.405 128.208H112.328L114.06 146.036H114.222L121.886 128.208H124.072L125.814 146.036H125.976L133.629 128.208H135.573L126.451 148.942H124.417L122.533 131.356H122.402L114.667 148.942H112.642ZM139.967 149.266C138.516 149.266 137.318 148.928 136.373 148.253C135.428 147.572 134.767 146.63 134.389 145.429C134.011 144.221 133.953 142.83 134.217 141.258C134.48 139.692 135 138.301 135.776 137.087C136.552 135.865 137.51 134.91 138.651 134.221C139.792 133.526 141.03 133.179 142.367 133.179C143.21 133.179 144 133.334 144.736 133.644C145.471 133.948 146.096 134.417 146.608 135.052C147.128 135.679 147.489 136.472 147.692 137.431C147.894 138.382 147.888 139.51 147.672 140.812L147.53 141.703H135.381L135.634 140.114H145.95C146.119 139.115 146.072 138.217 145.809 137.421C145.545 136.624 145.097 135.993 144.462 135.528C143.835 135.055 143.055 134.819 142.124 134.819C141.172 134.819 140.271 135.085 139.42 135.619C138.577 136.152 137.861 136.847 137.274 137.704C136.694 138.555 136.319 139.462 136.15 140.428L135.948 141.622C135.732 142.938 135.759 144.042 136.029 144.933C136.299 145.817 136.788 146.485 137.497 146.937C138.206 147.39 139.113 147.616 140.22 147.616C140.963 147.616 141.634 147.501 142.235 147.271C142.836 147.042 143.359 146.735 143.804 146.35C144.25 145.959 144.607 145.53 144.877 145.064L146.487 145.621C146.143 146.276 145.657 146.88 145.029 147.433C144.408 147.987 143.669 148.432 142.812 148.77C141.962 149.101 141.013 149.266 139.967 149.266ZM150.661 148.942L154.103 128.208H155.915L154.579 136.358H154.741C155.017 135.892 155.385 135.413 155.844 134.92C156.31 134.427 156.884 134.016 157.565 133.685C158.247 133.347 159.064 133.179 160.015 133.179C161.291 133.179 162.354 133.516 163.204 134.191C164.062 134.859 164.659 135.797 164.996 137.006C165.334 138.207 165.371 139.608 165.108 141.207C164.838 142.813 164.335 144.221 163.599 145.429C162.864 146.637 161.959 147.579 160.886 148.253C159.813 148.928 158.642 149.266 157.373 149.266C156.428 149.266 155.665 149.097 155.085 148.76C154.511 148.422 154.072 148.007 153.769 147.514C153.472 147.015 153.256 146.529 153.121 146.057H152.898L152.412 148.942H150.661ZM153.738 141.177C153.536 142.432 153.536 143.546 153.738 144.518C153.948 145.483 154.356 146.242 154.963 146.796C155.578 147.342 156.388 147.616 157.393 147.616C158.426 147.616 159.347 147.332 160.157 146.765C160.974 146.192 161.649 145.419 162.182 144.447C162.722 143.475 163.093 142.385 163.295 141.177C163.491 139.982 163.488 138.906 163.285 137.947C163.083 136.989 162.675 136.229 162.06 135.669C161.446 135.102 160.619 134.819 159.58 134.819C158.568 134.819 157.656 135.092 156.846 135.639C156.043 136.179 155.375 136.928 154.842 137.886C154.309 138.838 153.941 139.935 153.738 141.177ZM172.073 149.296C171.135 149.296 170.308 149.114 169.593 148.75C168.877 148.378 168.344 147.845 167.993 147.15C167.649 146.448 167.554 145.598 167.71 144.599C167.845 143.829 168.101 143.181 168.479 142.655C168.864 142.128 169.35 141.696 169.937 141.359C170.524 141.015 171.199 140.745 171.962 140.549C172.724 140.353 173.555 140.205 174.452 140.104C175.33 139.996 176.079 139.901 176.7 139.82C177.321 139.739 177.803 139.611 178.148 139.435C178.492 139.26 178.698 138.976 178.765 138.585L178.826 138.221C179.001 137.161 178.839 136.327 178.34 135.72C177.84 135.106 177.003 134.799 175.829 134.799C174.709 134.799 173.737 135.048 172.913 135.548C172.097 136.04 171.489 136.618 171.091 137.279L169.491 136.661C169.977 135.811 170.575 135.133 171.283 134.626C171.992 134.114 172.751 133.746 173.561 133.523C174.371 133.293 175.171 133.179 175.961 133.179C176.555 133.179 177.159 133.256 177.773 133.412C178.387 133.567 178.937 133.837 179.423 134.221C179.916 134.599 180.277 135.129 180.506 135.811C180.743 136.486 180.776 137.343 180.608 138.382L178.846 148.942H177.044L177.459 146.482H177.348C177.064 146.941 176.673 147.386 176.173 147.818C175.681 148.25 175.09 148.604 174.402 148.881C173.713 149.158 172.937 149.296 172.073 149.296ZM172.529 147.646C173.487 147.646 174.354 147.433 175.131 147.008C175.913 146.583 176.555 146.019 177.054 145.317C177.56 144.609 177.884 143.829 178.026 142.979L178.401 140.731C178.252 140.86 178.009 140.974 177.672 141.075C177.341 141.177 176.966 141.268 176.548 141.349C176.136 141.423 175.721 141.487 175.303 141.541C174.891 141.595 174.526 141.642 174.209 141.683C173.312 141.791 172.529 141.96 171.86 142.189C171.199 142.419 170.669 142.736 170.271 143.141C169.873 143.539 169.623 144.052 169.522 144.68C169.367 145.625 169.572 146.357 170.139 146.877C170.713 147.39 171.509 147.646 172.529 147.646ZM189.674 149.266C188.27 149.266 187.112 148.918 186.201 148.223C185.29 147.528 184.652 146.576 184.288 145.368C183.93 144.153 183.879 142.776 184.136 141.237C184.392 139.672 184.909 138.285 185.685 137.076C186.461 135.862 187.419 134.91 188.56 134.221C189.708 133.526 190.96 133.179 192.316 133.179C193.362 133.179 194.273 133.381 195.05 133.786C195.826 134.184 196.427 134.748 196.852 135.477C197.277 136.199 197.479 137.043 197.459 138.008H195.637C195.59 137.11 195.262 136.354 194.655 135.74C194.054 135.126 193.204 134.819 192.104 134.819C191.098 134.819 190.166 135.089 189.309 135.629C188.452 136.162 187.727 136.908 187.133 137.866C186.545 138.818 186.151 139.921 185.948 141.177C185.732 142.439 185.752 143.556 186.009 144.528C186.265 145.493 186.724 146.249 187.386 146.796C188.054 147.342 188.898 147.616 189.917 147.616C190.612 147.616 191.267 147.487 191.881 147.231C192.495 146.968 193.038 146.596 193.511 146.117C193.983 145.631 194.344 145.061 194.594 144.406H196.416C196.113 145.351 195.633 146.188 194.979 146.917C194.331 147.646 193.555 148.22 192.65 148.638C191.746 149.057 190.754 149.266 189.674 149.266ZM199.813 154.773C199.455 154.773 199.125 154.74 198.821 154.672C198.524 154.605 198.291 154.53 198.122 154.449L198.882 152.86C199.449 153.056 199.968 153.116 200.441 153.042C200.92 152.975 201.375 152.745 201.807 152.354C202.239 151.962 202.665 151.378 203.083 150.602L203.934 149.023L200.856 133.391H202.729L205.159 146.593H205.29L212.104 133.391H214.139L204.571 151.382C204.16 152.158 203.704 152.796 203.205 153.295C202.712 153.795 202.179 154.166 201.605 154.409C201.038 154.652 200.441 154.773 199.813 154.773Z" fill="black"/>
<defs>
<clipPath id="clip0_2511_461">
<rect width="264" height="65.8581" fill="white" transform="translate(12 46)"/>
</clipPath>
</defs>
</svg>
